HIERARCHY
ROOT RootJoint
{
    OFFSET   0.000000   0.000000   0.000000
    CHANNELS 6 Xposition Yposition Zposition Xrotation Yrotation Zrotation
    JOINT pelvis_lowerback
    {
        OFFSET   0.000000   0.093605   0.000000
        CHANNELS 3 Xrotation Yrotation Zrotation
        JOINT lowerback_torso
        {
            OFFSET   0.000000   0.100000   0.000000
            CHANNELS 3 Xrotation Yrotation Zrotation
            JOINT torso_head
            {
                OFFSET   0.000000   0.282350   0.000000
                CHANNELS 3 Xrotation Yrotation Zrotation
                End Site
                {
                    OFFSET   0.000000   0.192650   0.000000
                }
            }
            JOINT rTorso_Clavicle
            {
                OFFSET  -0.001000   0.157500   0.000000
                CHANNELS 3 Xrotation Yrotation Zrotation
                JOINT rShoulder
                {
                    OFFSET  -0.117647   0.000000   0.000000
                    CHANNELS 3 Xrotation Yrotation Zrotation
                    JOINT rElbow
                    {
                        OFFSET  -0.245000   0.000000   0.000000
                        CHANNELS 3 Xrotation Yrotation Zrotation
                        JOINT rWrist
                        {
                            OFFSET  -0.240000   0.000000   0.000000
                            CHANNELS 3 Xrotation Yrotation Zrotation
                            End Site
                            {
                                OFFSET  -0.116353  -0.002500   0.000000
                            }
                        }
                    }
                }
            }
            JOINT lTorso_Clavicle
            {
                OFFSET   0.001000   0.157500   0.000000
                CHANNELS 3 Xrotation Yrotation Zrotation
                JOINT lShoulder
                {
                    OFFSET   0.117647   0.000000   0.000000
                    CHANNELS 3 Xrotation Yrotation Zrotation
                    JOINT lElbow
                    {
                        OFFSET   0.245000   0.000000   0.000000
                        CHANNELS 3 Xrotation Yrotation Zrotation
                        JOINT lWrist
                        {
                            OFFSET   0.240000   0.000000   0.000000
                            CHANNELS 3 Xrotation Yrotation Zrotation
                            End Site
                            {
                                OFFSET   0.116353  -0.002500   0.000000
                            }
                        }
                    }
                }
            }
        }
    }
    JOINT rHip
    {
        OFFSET  -0.100000  -0.051395   0.000000
        CHANNELS 3 Xrotation Yrotation Zrotation
        JOINT rKnee
        {
            OFFSET   0.000000  -0.410000   0.000000
            CHANNELS 3 Xrotation Yrotation Zrotation
            JOINT rAnkle
            {
                OFFSET   0.000000  -0.390000   0.000000
                CHANNELS 3 Xrotation Yrotation Zrotation
                JOINT rToeJoint
                {
                    OFFSET   0.000000  -0.050000   0.130000
                    CHANNELS 3 Xrotation Yrotation Zrotation
                    End Site
                    {
                        OFFSET  -0.010000   0.002000   0.060000
                    }
                }
            }
        }
    }
    JOINT lHip
    {
        OFFSET   0.100000  -0.051395   0.000000
        CHANNELS 3 Xrotation Yrotation Zrotation
        JOINT lKnee
        {
            OFFSET   0.000000  -0.410000   0.000000
            CHANNELS 3 Xrotation Yrotation Zrotation
            JOINT lAnkle
            {
                OFFSET   0.000000  -0.390000   0.000000
                CHANNELS 3 Xrotation Yrotation Zrotation
                JOINT lToeJoint
                {
                    OFFSET   0.000000  -0.050000   0.130000
                    CHANNELS 3 Xrotation Yrotation Zrotation
                    End Site
                    {
                        OFFSET   0.010000   0.002000   0.060000
                    }
                }
            }
        }
    }
}
MOTION
Frames: 15
Frame Time:   0.008333
 -2.597346   0.680492   3.053278 -20.447750 -11.648233  -2.193703  30.258354   3.292794  -0.913309  -1.856300  -2.884421   1.115214  -2.769118  -0.085044  -0.389888   2.669884   4.608476  13.523755   8.018221  11.229355  37.989927  -0.000277  65.123165   0.000333  25.527527   1.594151 -13.485622  -0.926655 -10.669679 -10.317424  11.990142 -22.899208 -37.344304  -0.000113 -51.291230  -0.000081  12.078700  -6.947982  15.119102 -46.567171   0.395158 -18.556572  78.283075   0.001796  -0.000484 -16.606253   3.349421   7.817922  -0.959677  -0.000316  -0.000056 -26.983922  12.501631   6.777183  90.973936  -0.000056  -0.000184 -53.597488  -4.399686   4.850241  -3.149678   0.000327  -0.000009
 -2.598542   0.680603   3.052245 -20.438246 -11.675399  -2.206205  30.177473   3.304852  -0.906441  -1.867110  -2.847496   1.086573  -2.807598  -0.058059  -0.375026   2.689004   4.600828  13.509106   8.021484  11.199299  37.995949  -0.000215  65.117386   0.000261  25.541319   1.610974 -13.523245  -0.920995 -10.649011 -10.358797  12.078384 -22.935496 -37.329719  -0.000112 -51.221540  -0.000065  12.085020  -6.974173  15.120088 -46.343554   0.554911 -18.604559  78.560494   0.001989  -0.000467 -17.045626   3.346137   7.973718  -0.962997  -0.000255  -0.000046 -27.090535  12.441713   6.906267  90.967969  -0.000041  -0.000152 -53.529956  -4.459034   4.829008  -3.279188   0.000357   0.000065
 -2.599816   0.680512   3.051281 -20.432916 -11.705391  -2.212327  30.093430   3.318599  -0.906141  -1.882173  -2.808040   1.054255  -2.846465  -0.033990  -0.363545   2.702602   4.598202  13.497267   8.021686  11.173326  38.000838  -0.000162  65.109800   0.000202  25.551345   1.611232 -13.558383  -0.910115 -10.624169 -10.396503  12.165857 -22.964056 -37.314706  -0.000096 -51.153311  -0.000037  12.088521  -6.993032  15.114696 -46.100460   0.717971 -18.664284  78.841696   0.002158  -0.000477 -17.458385   3.341406   8.118744  -0.988488  -0.000222  -0.000041 -27.203886  12.383419   7.039067  90.995539  -0.000049  -0.000100 -53.463049  -4.514224   4.809035  -3.395825   0.000378   0.000113
 -2.601153   0.680239   3.050375 -20.430293 -11.748268  -2.210285  30.008963   3.338673  -0.914513  -1.901684  -2.764230   1.017656  -2.884204  -0.011505  -0.353957   2.712032   4.598680  13.486589   8.019553  11.151106  38.004810  -0.000121  65.103111   0.000156  25.560621   1.609700 -13.594333  -0.896342 -10.597043 -10.431849  12.250255 -22.987627 -37.300807  -0.000072 -51.087993  -0.000005  12.089698  -7.003407  15.107415 -45.850412   0.872862 -18.733732  79.112076   0.002229  -0.000522 -17.843069   3.335886   8.253798  -1.011070  -0.000194  -0.000031 -27.322264  12.330420   7.169683  91.051608  -0.000077  -0.000036 -53.398528  -4.565340   4.790245  -3.502226   0.000390   0.000152
 -2.602544   0.679803   3.049524 -20.430923 -11.809119  -2.200004  29.926206   3.364998  -0.931251  -1.924024  -2.716124   0.977014  -2.920432   0.009662  -0.345951   2.717520   4.602323  13.476788   8.015221  11.132679  38.007983  -0.000089  65.097639   0.000119  25.570200   1.610666 -13.631394  -0.880661 -10.568482 -10.465265  12.331083 -23.007228 -37.288109  -0.000047 -51.025820   0.000024  12.089312  -7.007260  15.099957 -45.599324   1.016962 -18.809144  79.367518   0.002200  -0.000590 -18.201712   3.329838   8.379694  -1.030562  -0.000167  -0.000019 -27.442733  12.283431   7.294714  91.132352  -0.000124   0.000030 -53.336301  -4.612650   4.772417  -3.599521   0.000393   0.000188
 -2.603986   0.679220   3.048723 -20.435296 -11.890515  -2.181896  29.846482   3.396514  -0.955230  -1.947827  -2.664513   0.933061  -2.954950   0.029595  -0.339327   2.719452   4.608942  13.467899   8.008927  11.117841  38.010538  -0.000065  65.093363   0.000091  25.580345   1.615157 -13.669229  -0.863584 -10.539084 -10.497039  12.408260 -23.023531 -37.276621  -0.000023 -50.966773   0.000045  12.087718  -7.005968  15.092487 -45.350988   1.149868 -18.887303  79.607220   0.002089  -0.000670 -18.536165   3.323447   8.497107  -1.047435  -0.000142  -0.000007 -27.562908  12.242250   7.412281  91.234688  -0.000193   0.000090 -53.276174  -4.656448   4.755476  -3.688535   0.000389   0.000224
 -2.605475   0.678502   3.047972 -20.443675 -11.993723  -2.156435  29.770573   3.431980  -0.985131  -1.972072  -2.610403   0.886670  -2.987673   0.048347  -0.333895   2.718385   4.618118  13.460024   8.001020  11.106216  38.012678  -0.000047  65.090154   0.000069  25.591055   1.623149 -13.707393  -0.845463 -10.509331 -10.527421  12.481816 -23.037081 -37.266350  -0.000004 -50.910769   0.000056  12.085098  -7.000513  15.084718 -45.108075   1.271891 -18.965799  79.831442   0.001918  -0.000751 -18.848110   3.316854   8.606632  -1.062087  -0.000118   0.000006 -27.680903  12.206514   7.521421  91.355931  -0.000284   0.000139 -53.217968  -4.697007   4.739367  -3.769990   0.000379   0.000259
 -2.607216   0.677795   3.047233 -20.453194 -12.037935  -2.159833  29.726534   3.446468  -0.986330  -2.027458  -2.600365   0.851707  -3.033238   0.037773  -0.345076   2.705685   4.629912  13.456549   7.995231  11.165750  38.021116   0.000029  65.032251   0.000006  25.621183   1.626996 -13.753753  -0.831752 -10.432290 -10.550282  12.594522 -23.017405 -37.232877   0.000005 -50.891782   0.000055  12.087759  -7.011619  15.085105 -44.774084   1.443500 -19.012660  80.141163   0.002203  -0.000687 -19.459937   3.261070   8.775092  -1.089414  -0.000113   0.000003 -27.813975  12.116392   7.694386  91.489995  -0.000352   0.000257 -53.143066  -4.760128   4.629552  -3.900317   0.000352   0.000303
 -2.609103   0.677108   3.046500 -20.441245 -12.061985  -2.154555  29.674702   3.460314  -0.990744  -2.088995  -2.590324   0.818660  -3.078831   0.025037  -0.358306   2.691848   4.643784  13.458326   7.988280  11.224217  38.031247   0.000067  64.976960  -0.000019  25.648924   1.623294 -13.791359  -0.814139 -10.352149 -10.564844  12.704669 -22.991637 -37.197343   0.000016 -50.872335   0.000059  12.091197  -7.021534  15.091661 -44.419047   1.619503 -19.071575  80.465888   0.002540  -0.000609 -20.033133   3.206714   8.931064  -1.137889  -0.000135  -0.000004 -27.968427  12.020668   7.884213  91.621325  -0.000389   0.000384 -53.073545  -4.818948   4.526399  -4.018453   0.000351   0.000296
 -2.611105   0.676449   3.045769 -20.410317 -12.083008  -2.136102  29.619135   3.480363  -1.002361  -2.153335  -2.574445   0.783422  -3.122915   0.013067  -0.372046   2.676934   4.659039  13.460990   7.980294  11.280647  38.041138   0.000075  64.925939  -0.000015  25.675733   1.620759 -13.827386  -0.795673 -10.272964 -10.574873  12.809577 -22.963674 -37.161890   0.000026 -50.852782   0.000066  12.093657  -7.024101  15.102547 -44.058007   1.787147 -19.143443  80.783024   0.002783  -0.000558 -20.567165   3.154439   9.075727  -1.181344  -0.000151  -0.000005 -28.136696  11.927311   8.078147  91.744694  -0.000409   0.000490 -53.010113  -4.873531   4.429356  -4.126438   0.000363   0.000272
 -2.613204   0.675820   3.045036 -20.363231 -12.109565  -2.104480  29.562971   3.507558  -1.021202  -2.218318  -2.551753   0.745235  -3.164828   0.002122  -0.385966   2.660274   4.676180  13.462991   7.970910  11.335462  38.049920   0.000063  64.879249   0.000006  25.702390   1.621990 -13.863385  -0.777457 -10.195140 -10.581670  12.908401 -22.934273 -37.127205   0.000035 -50.833595   0.000073  12.509598  -6.920601  15.106965 -43.698895   1.943120 -19.224024  81.085576   0.002904  -0.000534 -21.064930   3.104376   9.210100  -1.219813  -0.000157  -0.000001 -28.313797  11.837777   8.270352  91.858287  -0.000422   0.000567 -52.952345  -4.924157   4.337838  -4.225381   0.000378   0.000246
 -2.615394   0.675221   3.044302 -20.302593 -12.146537  -2.060640  29.508536   3.540703  -1.046375  -2.281771  -2.523302   0.704369  -3.204487  -0.007802  -0.399848   2.641334   4.695665  13.463902   7.959790  11.389159  38.057331   0.000040  64.836816   0.000033  25.729245   1.628026 -13.900032  -0.757841 -10.120096 -10.586277  13.003150 -22.904982 -37.093936   0.000040 -50.814703   0.000077  12.425366  -6.934099  15.117406 -43.346806   2.086892 -19.309170  81.371653   0.002910  -0.000529 -21.529024   3.056588   9.335014  -1.253991  -0.000155   0.000006 -28.495957  11.751950   8.457663  91.961454  -0.000432   0.000614 -52.899756  -4.971156   4.251519  -4.316100   0.000392   0.000227
 -2.617671   0.674650   3.043568 -20.230441 -12.196552  -2.005499  29.457203   3.578815  -1.076811  -2.342711  -2.489752   0.661353  -3.241615  -0.016874  -0.413530   2.620525   4.716952  13.463713   7.947218  11.441538  38.063425   0.000014  64.798295   0.000060  25.756248   1.638499 -13.937678  -0.738236 -10.047062 -10.589484  13.092473 -22.875259 -37.062519   0.000041 -50.796359   0.000078  12.358447  -6.937628  15.136949 -43.005235   2.218834 -19.395910  81.641124   0.002825  -0.000537 -21.961808   3.011096   9.451192  -1.284503  -0.000147   0.000016 -28.680319  11.669262   8.638227  92.054051  -0.000441   0.000632 -52.851899  -5.014859   4.170165  -4.399314   0.000404   0.000215
 -2.619968   0.674075   3.042678 -20.119725 -12.211634  -1.934051  29.418195   3.510529  -1.137205  -2.423953  -2.475028   0.667351  -3.273664  -0.017973  -0.524475   2.579430   4.775909  13.439380   7.891322  11.540170  38.080821   0.000043  64.681696   0.000055  25.790267   1.667088 -13.958926  -0.734579  -9.907131 -10.608882  13.158849 -22.772040 -37.034312  -0.000026 -50.863395  -0.000034  12.292563  -6.918493  15.109058 -42.492521   2.296446 -19.488075  81.252789   0.001436  -0.000396 -22.482816   2.892767   9.520770  -1.269609  -0.000095   0.000016 -28.922748  11.519633   8.782405  92.141775  -0.000470   0.000628 -52.709874  -5.059707   3.953588  -4.477542   0.000317   0.000224
 -2.622096   0.673876   3.041732 -20.212055 -12.253942  -1.914816  29.561380   3.442621  -1.181083  -2.425088  -2.457070   0.671203  -3.297747  -0.020821  -0.636990   2.509460   4.860768  13.410633   7.818801  11.643371  38.080961   0.000051  64.566644   0.000064  25.811565   1.648056 -13.990132  -0.748811  -9.792530 -10.637100  13.208611 -22.680453 -37.003857  -0.000026 -50.925704  -0.000056  12.240979  -6.886395  15.115582 -42.543308   2.172416 -19.475421  81.434446   0.000802  -0.000365 -22.814246   2.705832   9.745741  -1.147991  -0.000499  -0.000266 -28.905240  11.387687   8.904134  92.143360  -0.000378   0.000505 -52.566287  -5.100738   3.750509  -4.541740   0.000247   0.000239
